<svg width="1270" height="536" viewBox="0 0 1270 536" fill="none" xmlns="http://www.w3.org/2000/svg">
<g clip-path="url(#clip0_226_20)">
<path d="M-263 3.72001L-263 532.28H-227.807C-226.523 531.729 -225.067 531.439 -223.584 531.439C-222.101 531.439 -220.645 531.729 -219.361 532.28H-209.507C-207.958 531.251 -205.954 530.682 -203.876 530.682C-201.798 530.682 -199.794 531.251 -198.245 532.28H-186.983C-182.79 531.753 -178.507 531.753 -174.314 532.28H-125.044C-123.112 532.28 -120.682 531.418 -118.324 530.581C-113.811 528.979 -109.559 527.469 -109.559 532.28C-103.928 519.725 -92.6667 527.049 -92.6667 532.28C-90.0581 531.271 -87.1609 530.745 -84.2204 530.745C-81.2799 530.745 -78.3827 531.271 -75.7741 532.28C-70.1433 524.956 -65.9201 523.91 -58.8815 532.28C-54.3039 537.724 -50.9171 536.087 -47.1722 534.276C-45.1589 533.303 -43.0422 532.28 -40.5813 532.28H-1.16533C0.617541 532.28 2.54153 531.336 4.56196 530.345C8.92269 528.205 13.7327 525.845 18.5427 532.28C18.5427 528.197 23.3061 529.425 28.5733 530.783C31.4049 531.513 34.3821 532.28 36.843 532.28H101.598C104.526 532.28 108.131 531.651 111.592 531.048C118.113 529.91 124.121 528.862 124.121 532.28C132.037 531.244 140.136 531.244 148.052 532.28C152.651 528.862 157.249 529.91 162.24 531.048C164.888 531.651 167.647 532.28 170.576 532.28H218.438C226.278 530.727 234.529 530.727 242.369 532.28H316.978C325.295 533.83 333.999 533.83 342.317 532.28C345.132 532.28 347.948 531.699 350.763 531.118C356.394 529.955 362.025 528.793 367.656 532.28C375.973 530.73 384.677 530.73 392.994 532.28C401.21 530.207 410.117 530.207 418.333 532.28H445.08C453.296 530.207 462.203 530.207 470.419 532.28C478.85 531.756 487.326 531.756 495.758 532.28H547.843C551.393 530.066 555.878 528.852 560.512 528.852C565.146 528.852 569.632 530.066 573.182 532.28H650.606C658.923 530.73 667.627 530.73 675.945 532.28C678.76 532.28 681.576 531.466 684.391 530.653C690.022 529.025 695.653 527.398 701.284 532.28C706.86 537.116 711.823 535.566 716.983 533.954C719.638 533.125 722.345 532.28 725.215 532.28C733.532 533.83 742.236 533.83 750.554 532.28C754.192 530.719 758.318 529.897 762.519 529.897C766.72 529.897 770.847 530.719 774.485 532.28H823.755C827.255 530.989 831.109 530.318 835.016 530.318C838.924 530.318 842.778 530.989 846.278 532.28H870.209C877.451 530.179 885.491 530.179 892.733 532.28H1001.13C1004 533.813 1007.44 534.637 1010.98 534.637C1014.52 534.637 1017.96 533.813 1020.83 532.28H1058.84C1061.3 532.28 1063.42 533.047 1065.43 533.777C1069.18 535.135 1072.57 536.363 1077.14 532.28C1084.18 526.003 1095.44 532.28 1095.44 532.28C1100.89 530.754 1106.89 530.754 1112.34 532.28H1172.87C1176.5 528.902 1178.97 529.887 1181.77 531.008C1183.31 531.624 1184.95 532.28 1186.94 532.28H1270V3.72001H1234.81C1233.52 4.27098 1232.07 4.56103 1230.58 4.56103C1229.1 4.56103 1227.64 4.27098 1226.36 3.72001H1216.51C1214.96 4.74943 1212.95 5.31852 1210.88 5.31852C1208.8 5.31852 1206.79 4.74943 1205.25 3.72001H1193.98C1189.79 4.24682 1185.51 4.24682 1181.31 3.72001H1132.04C1130.11 3.72001 1127.68 4.58238 1125.32 5.41937C1120.81 7.02153 1116.56 8.53066 1116.56 3.72001C1110.93 16.2751 1099.67 8.95128 1099.67 3.72001C1097.06 4.72869 1094.16 5.25528 1091.22 5.25528C1088.28 5.25528 1085.38 4.72869 1082.77 3.72001C1077.14 11.0438 1072.92 12.09 1065.88 3.72001C1061.3 -1.72358 1057.92 -0.0865028 1054.17 1.72369C1052.16 2.69684 1050.04 3.72001 1047.58 3.72001H1008.17C1006.38 3.72001 1004.46 4.66401 1002.44 5.65533C998.077 7.79489 993.267 10.1549 988.457 3.72001C988.457 7.80271 983.694 6.5749 978.427 5.21725C975.595 4.48739 972.618 3.72001 970.157 3.72001H905.402C902.474 3.72001 898.869 4.34877 895.408 4.95234C888.887 6.08973 882.879 7.13766 882.879 3.72001C874.963 4.75633 866.864 4.75633 858.948 3.72001C854.349 7.13766 849.751 6.08973 844.76 4.95234C842.112 4.34877 839.353 3.72001 836.424 3.72001H788.562C780.722 5.27333 772.471 5.27333 764.631 3.72001H690.022C681.705 2.16977 673.001 2.16977 664.683 3.72001C661.868 3.72001 659.052 4.30126 656.237 4.88252C650.606 6.04502 644.975 7.20753 639.344 3.72001C631.027 5.27026 622.323 5.27026 614.006 3.72001C605.789 5.79278 596.883 5.79278 588.667 3.72001H561.92C553.704 5.79278 544.797 5.79278 536.581 3.72001C528.15 4.24405 519.674 4.24405 511.242 3.72001H459.157C455.607 5.9341 451.122 7.14774 446.488 7.14774C441.854 7.14774 437.368 5.9341 433.818 3.72001H356.394C348.076 5.27026 339.373 5.27026 331.055 3.72001C328.24 3.72001 325.424 4.53377 322.609 5.34752C316.978 6.97503 311.347 8.60253 305.716 3.72001C300.14 -1.11554 295.177 0.434292 290.017 2.04554C287.362 2.87465 284.655 3.72001 281.785 3.72001C273.468 2.16977 264.764 2.16977 256.446 3.72001C252.808 5.28109 248.682 6.10288 244.481 6.10288C240.28 6.10288 236.153 5.28109 232.515 3.72001H183.245C179.745 5.01067 175.891 5.68225 171.983 5.68225C168.076 5.68225 164.222 5.01067 160.722 3.72001H136.791C129.549 5.82103 121.509 5.82103 114.267 3.72001H5.87336C3.00158 2.18712 -0.445012 1.3626 -3.98069 1.3626C-7.51634 1.3626 -10.9629 2.18712 -13.8346 3.72001H-51.843C-54.3039 3.72001 -56.4206 2.95263 -58.4339 2.22277C-62.1788 0.865127 -65.5656 -0.362684 -70.1432 3.72001C-77.1818 9.99753 -88.4434 3.72001 -88.4434 3.72001C-93.887 5.24618 -99.8925 5.24618 -105.336 3.72001H-165.868C-169.504 7.09811 -171.966 6.11339 -174.77 4.99178C-176.309 4.37649 -177.95 3.72001 -179.945 3.72001H-263Z" fill="#ECEAEA"/>
<path d="M1227.12 42.9632V42H356.804V42.9632H355.827V489.198C356.099 489.198 356.266 489.289 356.539 489.289C356.908 489.546 357.326 489.724 357.767 489.813V468.114H381.481V487.424C382.176 487.927 382.825 488.49 383.421 489.107V468.114H407.052V488.493L408.992 488.22V468.114H432.616V491.572C433.285 491.2 433.933 490.79 434.556 490.343V468.114H458.179V485.846C458.889 485.852 459.586 486.031 460.21 486.369V468.114H483.841V486.195C484.561 486.378 485.247 486.675 485.872 487.075V468.114H509.367V488.925C509.994 488.685 510.644 488.509 511.307 488.402V468.114H535.021V490.07C535.635 489.904 536.264 489.638 536.962 489.373V468.137H560.592V488.402C561.195 488.018 561.848 487.719 562.533 487.515V468.114H586.224V492.55C586.962 492.221 587.624 491.741 588.164 491.14V468.114H611.879V488.705C612.492 488.705 613.122 488.614 613.819 488.614V468.137H637.45V489.926C638.114 490.095 638.796 490.181 639.481 490.184V468.114H662.975V490.609C663.65 490.685 664.328 490.715 665.006 490.7V468.114H688.63V490.07C689.297 489.972 689.951 489.796 690.578 489.547V468.114H714.201V488.925C714.881 488.965 715.558 489.057 716.224 489.198V468.114H739.855V489.547C740.469 489.373 741.083 489.289 741.705 489.107V468.114H765.419V489.107C765.684 489.107 765.949 489.289 766.177 489.289C766.616 489.289 766.935 489.198 767.321 489.198V468.114H790.96V490.222C791.664 490.313 792.369 490.488 792.983 490.579V468.114H816.622V488.925C817.234 488.515 817.884 488.162 818.562 487.871V468.152H842.185V488.531C842.824 488.39 843.472 488.298 844.125 488.258V468.114H867.779V489.638C868.459 489.622 869.137 489.564 869.81 489.464V468.114H893.433V488.493C894.083 488.506 894.732 488.564 895.374 488.667V468.114H918.997V492.641H918.83C920.35 493.12 921.979 493.12 923.499 492.641H920.937V468.114H944.568V489.813C945.099 489.638 945.538 489.464 946.084 489.289C946.266 489.289 946.44 489.107 946.622 489.107V468.114H970.245V489.904C970.901 489.907 971.554 489.818 972.185 489.638V468.114H995.786V488.493C996.426 488.358 997.074 488.267 997.726 488.22V468.114H1021.36V489.107C1021.82 489.207 1022.29 489.268 1022.77 489.289C1022.94 489.289 1023.12 489.198 1023.39 489.198V468.114H1047.02V488.925C1047.66 488.836 1048.31 488.78 1048.96 488.758V468.114H1072.58V489.35C1073.2 489.524 1073.91 489.615 1074.52 489.79V468.114H1098.15V487.697C1098.82 487.522 1099.5 487.43 1100.18 487.424V468.114H1123.81V489.107C1124.46 489.073 1125.11 489.135 1125.75 489.289V468.114H1149.33V488.22C1150 488.127 1150.68 488.071 1151.36 488.053V468.114H1174.9V488.592C1175.6 488.574 1176.29 488.692 1176.94 488.94V468.114H1200.56V489.35H1202.5V468.114H1226.21V489.107C1226.83 488.859 1227.48 488.741 1228.15 488.758V42.9632H1227.12ZM381.481 466.082H357.767V441.684H381.481V466.082ZM381.481 439.613H357.767V415.094H381.481V439.613ZM381.481 413.069H357.767V388.595H381.481V413.069ZM381.481 386.6H357.767V362.05H381.481V386.6ZM381.481 360.056H357.767V335.604H381.481V360.056ZM381.481 333.587H357.767V309.045H381.481V333.587ZM381.481 307.043H357.767V282.584H381.481V307.043ZM381.481 280.574H357.767V256.024H381.481V280.574ZM381.481 254.105H357.767V229.563H381.481V254.105ZM381.481 227.561H357.767V203.004H381.481V227.561ZM381.481 201.016H357.767V176.535H381.481V201.016ZM381.481 174.555H357.767V150.074H381.481V174.555ZM381.481 148.087H357.767V123.514H381.481V148.087ZM381.481 121.542H357.767V97.0532H381.481V121.542ZM381.481 95.0737H357.767V70.4936H381.481V95.0737ZM381.481 68.5293H357.767V44.025H381.481V68.5293ZM407.052 466.082H383.421V441.684H407.052V466.082ZM407.052 439.613H383.421V415.094H407.052V439.613ZM407.052 413.069H383.421V388.595H407.052V413.069ZM407.052 386.6H383.421V362.05H407.052V386.6ZM407.052 360.056H383.421V335.604H407.052V360.056ZM407.052 333.587H383.421V309.045H407.052V333.587ZM407.052 307.043H383.421V282.584H407.052V307.043ZM407.052 280.574H383.421V256.024H407.052V280.574ZM407.052 254.105H383.421V229.563H407.052V254.105ZM407.052 227.561H383.421V203.004H407.052V227.561ZM407.052 201.016H383.421V176.535H407.052V201.016ZM407.052 174.555H383.421V150.074H407.052V174.555ZM407.052 148.087H383.421V123.514H407.052V148.087ZM407.052 121.542H383.421V97.0532H407.052V121.542ZM407.052 95.0737H383.421V70.4936H407.052V95.0737ZM407.052 68.5293H383.421V44.025H407.052V68.5293ZM432.616 466.143H408.992V441.684H432.616V466.143ZM432.616 439.674H408.992V415.094H432.616V439.674ZM432.616 413.129H408.992V388.595H432.616V413.129ZM432.616 386.661H408.992V362.05H432.616V386.661ZM432.616 360.116H408.992V335.604H432.616V360.116ZM432.616 333.648H408.992V309.045H432.616V333.648ZM432.616 307.103H408.992V282.584H432.616V307.103ZM432.616 280.635H408.992V256.024H432.616V280.635ZM432.616 254.166H408.992V229.563H432.616V254.166ZM432.616 227.622H408.992V203.004H432.616V227.622ZM432.616 201.077H408.992V176.535H432.616V201.077ZM432.616 174.616H408.992V150.074H432.616V174.616ZM432.616 148.147H408.992V123.514H432.616V148.147ZM432.616 121.603H408.992V97.0532H432.616V121.603ZM432.616 95.1344H408.992V70.4936H432.616V95.1344ZM432.616 68.59H408.992V44.025H432.616V68.59ZM458.179 466.203H434.556V441.684H458.179V466.203ZM458.179 439.735H434.556V415.094H458.179V439.735ZM458.179 413.19H434.556V388.595H458.179V413.19ZM458.179 386.721H434.556V362.05H458.179V386.721ZM458.179 360.177H434.556V335.604H458.179V360.177ZM458.179 333.708H434.556V309.045H458.179V333.708ZM458.179 307.164H434.556V282.584H458.179V307.164ZM458.179 280.695H434.556V256.024H458.179V280.695ZM458.179 254.227H434.556V229.563H458.179V254.227ZM458.179 227.682H434.556V203.004H458.179V227.682ZM458.179 201.138H434.556V176.535H458.179V201.138ZM458.179 174.677H434.556V150.074H458.179V174.677ZM458.179 148.208H434.556V123.514H458.179V148.208ZM458.179 121.664H434.556V97.0532H458.179V121.664ZM458.179 95.1951H434.556V70.4936H458.179V95.1951ZM458.179 68.6506H434.556V44.025H458.179V68.6506ZM483.841 466.264H460.21V441.684H483.841V466.264ZM483.841 439.795H460.21V415.094H483.841V439.795ZM483.841 413.251H460.21V388.595H483.841V413.251ZM483.841 386.782H460.21V362.05H483.841V386.782ZM483.841 360.238H460.21V335.604H483.841V360.238ZM483.841 333.769H460.21V309.045H483.841V333.769ZM483.841 307.225H460.21V282.584H483.841V307.225ZM483.841 280.756H460.21V256.024H483.841V280.756ZM483.841 254.287H460.21V229.563H483.841V254.287ZM483.841 227.743H460.21V203.004H483.841V227.743ZM483.841 201.198H460.21V176.535H483.841V201.198ZM483.841 174.737H460.21V150.074H483.841V174.737ZM483.841 148.269H460.21V123.514H483.841V148.269ZM483.841 121.724H460.21V97.0532H483.841V121.724ZM483.841 95.2558H460.21V70.4936H483.841V95.2558ZM483.841 68.7113H460.21V44.025H483.841V68.7113ZM509.405 466.325H485.91V441.684H509.405V466.325ZM509.405 439.856H485.91V415.094H509.405V439.856ZM509.405 413.311H485.91V388.595H509.405V413.311ZM509.405 386.843H485.91V362.05H509.405V386.843ZM509.405 360.298H485.91V335.604H509.405V360.298ZM509.405 333.83H485.91V309.045H509.405V333.83ZM509.405 307.285H485.91V282.584H509.405V307.285ZM509.405 280.817H485.91V256.024H509.405V280.817ZM509.405 254.348H485.91V229.563H509.405V254.348ZM509.405 227.804H485.91V203.004H509.405V227.804ZM509.405 201.259H485.91V176.535H509.405V201.259ZM509.405 174.798H485.91V150.074H509.405V174.798ZM509.405 148.33H485.91V123.514H509.405V148.33ZM509.405 121.785H485.91V97.0532H509.405V121.785ZM509.405 95.3164H485.91V70.4936H509.405V95.3164ZM509.405 68.772H485.91V44.025H509.405V68.772ZM535.059 466.385H511.345V441.684H535.059V466.385ZM535.059 439.917H511.345V415.094H535.059V439.917ZM535.059 413.372H511.345V388.595H535.059V413.372ZM535.059 386.904H511.345V362.05H535.059V386.904ZM535.059 360.359H511.345V335.604H535.059V360.359ZM535.059 333.89H511.345V309.045H535.059V333.89ZM535.059 307.346H511.345V282.584H535.059V307.346ZM535.059 280.877H511.345V256.024H535.059V280.877ZM535.059 254.409H511.345V229.563H535.059V254.409ZM535.059 227.864H511.345V203.004H535.059V227.864ZM535.059 201.32H511.345V176.535H535.059V201.32ZM535.059 174.859H511.345V150.074H535.059V174.859ZM535.059 148.39H511.345V123.514H535.059V148.39ZM535.059 121.846H511.345V97.0532H535.059V121.846ZM535.059 95.3771H511.345V70.4936H535.059V95.3771ZM535.059 68.8327H511.345V44.025H535.059V68.8327ZM560.63 466.446H536.999V441.684H560.63V466.446ZM560.63 439.977H536.999V415.094H560.63V439.977ZM560.63 413.433H536.999V388.595H560.63V413.433ZM560.63 386.964H536.999V362.05H560.63V386.964ZM560.63 360.42H536.999V335.604H560.63V360.42ZM560.63 333.951H536.999V309.045H560.63V333.951ZM560.63 307.407H536.999V282.584H560.63V307.407ZM560.63 280.938H536.999V256.024H560.63V280.938ZM560.63 254.469H536.999V229.563H560.63V254.469ZM560.63 227.925H536.999V203.004H560.63V227.925ZM560.63 201.381H536.999V176.535H560.63V201.381ZM560.63 174.919H536.999V150.074H560.63V174.919ZM560.63 148.451H536.999V123.514H560.63V148.451ZM560.63 121.906H536.999V97.0532H560.63V121.906ZM560.63 95.4378H536.999V70.4936H560.63V95.4378ZM560.63 68.8933H536.999V44.025H560.63V68.8933ZM586.224 466.082H562.57V441.684H586.224V466.082ZM586.224 439.613H562.57V415.094H586.224V439.613ZM586.224 413.069H562.57V388.595H586.224V413.069ZM586.224 386.6H562.57V362.05H586.224V386.6ZM586.224 360.056H562.57V335.604H586.224V360.056ZM586.224 333.587H562.57V309.045H586.224V333.587ZM586.224 307.043H562.57V282.584H586.224V307.043ZM586.224 280.574H562.57V256.024H586.224V280.574ZM586.224 254.105H562.57V229.563H586.224V254.105ZM586.224 227.561H562.57V203.004H586.224V227.561ZM586.224 201.016H562.57V176.535H586.224V201.016ZM586.224 174.555H562.57V150.074H586.224V174.555ZM586.224 148.087H562.57V123.514H586.224V148.087ZM586.224 121.542H562.57V97.0532H586.224V121.542ZM586.224 95.0737H562.57V70.4936H586.224V95.0737ZM586.224 68.5293H562.57V44.025H586.224V68.5293ZM611.879 466.143H588.134V441.684H611.848L611.879 466.143ZM611.879 439.674H588.134V415.094H611.848L611.879 439.674ZM611.879 413.129H588.134V388.595H611.848L611.879 413.129ZM611.879 386.661H588.134V362.05H611.848L611.879 386.661ZM611.879 360.116H588.134V335.604H611.848L611.879 360.116ZM611.879 333.648H588.134V309.045H611.848L611.879 333.648ZM611.879 307.103H588.134V282.584H611.848L611.879 307.103ZM611.879 280.635H588.134V256.024H611.848L611.879 280.635ZM611.879 254.166H588.134V229.563H611.848L611.879 254.166ZM611.879 227.622H588.134V203.004H611.848L611.879 227.622ZM611.879 201.077H588.134V176.535H611.848L611.879 201.077ZM611.879 174.616H588.134V150.074H611.848L611.879 174.616ZM611.879 148.147H588.134V123.514H611.848L611.879 148.147ZM611.879 121.603H588.134V97.0532H611.848L611.879 121.603ZM611.879 95.1344H588.134V70.4936H611.848L611.879 95.1344ZM611.879 68.59H588.134V44.025H611.848L611.879 68.59ZM637.45 466.203H613.788V441.684H637.419L637.45 466.203ZM637.45 439.735H613.788V415.094H637.419L637.45 439.735ZM637.45 413.19H613.788V388.595H637.419L637.45 413.19ZM637.45 386.721H613.788V362.05H637.419L637.45 386.721ZM637.45 360.177H613.788V335.604H637.419L637.45 360.177ZM637.45 333.708H613.788V309.045H637.419L637.45 333.708ZM637.45 307.164H613.788V282.584H637.419L637.45 307.164ZM637.45 280.695H613.788V256.024H637.419L637.45 280.695ZM637.45 254.227H613.788V229.563H637.419L637.45 254.227ZM637.45 227.682H613.788V203.004H637.419L637.45 227.682ZM637.45 201.138H613.788V176.535H637.419L637.45 201.138ZM637.45 174.677H613.788V150.074H637.419L637.45 174.677ZM637.45 148.208H613.788V123.514H637.419L637.45 148.208ZM637.45 121.664H613.788V97.0532H637.419L637.45 121.664ZM637.45 95.1951H613.788V70.4936H637.419L637.45 95.1951ZM637.45 68.6506H613.788V44.025H637.419L637.45 68.6506ZM663.013 466.264H639.519V441.684H663.013V466.264ZM663.013 439.795H639.519V415.094H663.013V439.795ZM663.013 413.251H639.519V388.595H663.013V413.251ZM663.013 386.782H639.519V362.05H663.013V386.782ZM663.013 360.238H639.519V335.604H663.013V360.238ZM663.013 333.769H639.519V309.045H663.013V333.769ZM663.013 307.225H639.519V282.584H663.013V307.225ZM663.013 280.756H639.519V256.024H663.013V280.756ZM663.013 254.287H639.519V229.563H663.013V254.287ZM663.013 227.743H639.519V203.004H663.013V227.743ZM663.013 201.198H639.519V176.535H663.013V201.198ZM663.013 174.737H639.519V150.074H663.013V174.737ZM663.013 148.269H639.519V123.514H663.013V148.269ZM663.013 121.724H639.519V97.0532H663.013V121.724ZM663.013 95.2558H639.519V70.4936H663.013V95.2558ZM663.013 68.7113H639.519V44.025H663.013V68.7113ZM688.668 466.325H665.044V441.684H688.668V466.325ZM688.668 439.856H665.044V415.094H688.668V439.856ZM688.668 413.311H665.044V388.595H688.668V413.311ZM688.668 386.843H665.044V362.05H688.668V386.843ZM688.668 360.298H665.044V335.604H688.668V360.298ZM688.668 333.83H665.044V309.045H688.668V333.83ZM688.668 307.285H665.044V282.584H688.668V307.285ZM688.668 280.817H665.044V256.024H688.668V280.817ZM688.668 254.348H665.044V229.563H688.668V254.348ZM688.668 227.804H665.044V203.004H688.668V227.804ZM688.668 201.259H665.044V176.535H688.668V201.259ZM688.668 174.798H665.044V150.074H688.668V174.798ZM688.668 148.33H665.044V123.514H688.668V148.33ZM688.668 121.785H665.044V97.0532H688.668V121.785ZM688.668 95.3164H665.044V70.4936H688.668V95.3164ZM688.668 68.772H665.044V44.025H688.668V68.772ZM714.239 466.385H690.585V441.684H714.208L714.239 466.385ZM714.239 439.917H690.585V415.094H714.208L714.239 439.917ZM714.239 413.372H690.585V388.595H714.208L714.239 413.372ZM714.239 386.904H690.585V362.05H714.208L714.239 386.904ZM714.239 360.359H690.585V335.604H714.208L714.239 360.359ZM714.239 333.89H690.585V309.045H714.208L714.239 333.89ZM714.239 307.346H690.585V282.584H714.208L714.239 307.346ZM714.239 280.877H690.585V256.024H714.208L714.239 280.877ZM714.239 254.409H690.585V229.563H714.208L714.239 254.409ZM714.239 227.864H690.585V203.004H714.208L714.239 227.864ZM714.239 201.32H690.585V176.535H714.208L714.239 201.32ZM714.239 174.859H690.585V150.074H714.208L714.239 174.859ZM714.239 148.39H690.585V123.514H714.208L714.239 148.39ZM714.239 121.846H690.585V97.0532H714.208L714.239 121.846ZM714.239 95.3771H690.585V70.4936H714.208L714.239 95.3771ZM714.239 68.8327H690.585V44.025H714.208L714.239 68.8327ZM739.893 466.446H716.232V441.684H739.863L739.893 466.446ZM739.893 439.977H716.232V415.094H739.863L739.893 439.977ZM739.893 413.433H716.232V388.595H739.863L739.893 413.433ZM739.893 386.964H716.232V362.05H739.863L739.893 386.964ZM739.893 360.42H716.232V335.604H739.863L739.893 360.42ZM739.893 333.951H716.232V309.045H739.863L739.893 333.951ZM739.893 307.407H716.232V282.584H739.863L739.893 307.407ZM739.893 280.938H716.232V256.024H739.863L739.893 280.938ZM739.893 254.469H716.232V229.563H739.863L739.893 254.469ZM739.893 227.925H716.232V203.004H739.863L739.893 227.925ZM739.893 201.381H716.232V176.535H739.863L739.893 201.381ZM739.893 174.919H716.232V150.074H739.863L739.893 174.919ZM739.893 148.451H716.232V123.514H739.863L739.893 148.451ZM739.893 121.906H716.232V97.0532H739.863L739.893 121.906ZM739.893 95.4378H716.232V70.4936H739.863L739.893 95.4378ZM739.893 68.8933H716.232V44.025H739.863L739.893 68.8933ZM765.457 466.507H741.712V441.684H765.426L765.457 466.507ZM765.457 440.038H741.712V415.094H765.426L765.457 440.038ZM765.457 413.493H741.712V388.595H765.426L765.457 413.493ZM765.457 387.025H741.712V362.05H765.426L765.457 387.025ZM765.457 360.48H741.712V335.604H765.426L765.457 360.48ZM765.457 334.012H741.712V309.045H765.426L765.457 334.012ZM765.457 307.467H741.712V282.584H765.426L765.457 307.467ZM765.457 280.999H741.712V256.024H765.426L765.457 280.999ZM765.457 254.53H741.712V229.563H765.426L765.457 254.53ZM765.457 227.986H741.712V203.004H765.426L765.457 227.986ZM765.457 201.441H741.712V176.535H765.426L765.457 201.441ZM765.457 174.98H741.712V150.074H765.426L765.457 174.98ZM765.457 148.512H741.712V123.514H765.426L765.457 148.512ZM765.457 121.967H741.712V97.0532H765.426L765.457 121.967ZM765.457 95.4985H741.712V70.4936H765.426L765.457 95.4985ZM765.457 68.954H741.712V44.025H765.426L765.457 68.954ZM791.028 466.567H767.359V441.684H790.997L791.028 466.567ZM791.028 440.099H767.359V415.094H790.997L791.028 440.099ZM791.028 413.554H767.359V388.595H790.997L791.028 413.554ZM791.028 387.086H767.359V362.05H790.997L791.028 387.086ZM791.028 360.541H767.359V335.604H790.997L791.028 360.541ZM791.028 334.072H767.359V309.045H790.997L791.028 334.072ZM791.028 307.528H767.359V282.584H790.997L791.028 307.528ZM791.028 281.059H767.359V256.024H790.997L791.028 281.059ZM791.028 254.591H767.359V229.563H790.997L791.028 254.591ZM791.028 228.046H767.359V203.004H790.997L791.028 228.046ZM791.028 201.502H767.359V176.535H790.997L791.028 201.502ZM791.028 175.041H767.359V150.074H790.997L791.028 175.041ZM791.028 148.572H767.359V123.514H790.997L791.028 148.572ZM791.028 122.028H767.359V97.0532H790.997L791.028 122.028ZM791.028 95.5591H767.359V70.4936H790.997L791.028 95.5591ZM791.028 69.0147H767.359V44.025H790.997L791.028 69.0147ZM816.622 466.082H793.021V441.684H816.622V466.082ZM816.622 439.613H793.021V415.094H816.622V439.613ZM816.622 413.069H793.021V388.595H816.622V413.069ZM816.622 386.6H793.021V362.05H816.622V386.6ZM816.622 360.056H793.021V335.604H816.622V360.056ZM816.622 333.587H793.021V309.045H816.622V333.587ZM816.622 307.043H793.021V282.584H816.622V307.043ZM816.622 280.574H793.021V256.024H816.622V280.574ZM816.622 254.105H793.021V229.563H816.622V254.105ZM816.622 227.561H793.021V203.004H816.622V227.561ZM816.622 201.016H793.021V176.535H816.622V201.016ZM816.622 174.555H793.021V150.074H816.622V174.555ZM816.622 148.087H793.021V123.514H816.622V148.087ZM816.622 121.542H793.021V97.0532H816.622V121.542ZM816.622 95.0737H793.021V70.4936H816.622V95.0737ZM816.622 68.5293H793.021V44.025H816.622V68.5293ZM842.185 466.143H818.585V441.684H842.208L842.185 466.143ZM842.185 439.674H818.585V415.094H842.208L842.185 439.674ZM842.185 413.129H818.585V388.595H842.208L842.185 413.129ZM842.185 386.661H818.585V362.05H842.208L842.185 386.661ZM842.185 360.116H818.585V335.604H842.208L842.185 360.116ZM842.185 333.648H818.585V309.045H842.208L842.185 333.648ZM842.185 307.103H818.585V282.584H842.208L842.185 307.103ZM842.185 280.635H818.585V256.024H842.208L842.185 280.635ZM842.185 254.166H818.585V229.563H842.208L842.185 254.166ZM842.185 227.622H818.585V203.004H842.208L842.185 227.622ZM842.185 201.077H818.585V176.535H842.208L842.185 201.077ZM842.185 174.616H818.585V150.074H842.208L842.185 174.616ZM842.185 148.147H818.585V123.514H842.208L842.185 148.147ZM842.185 121.603H818.585V97.0532H842.208L842.185 121.603ZM842.185 95.1344H818.585V70.4936H842.208L842.185 95.1344ZM842.185 68.59H818.585V44.025H842.208L842.185 68.59ZM867.779 466.082H844.148V441.684H867.779V466.082ZM867.779 439.613H844.148V415.094H867.779V439.613ZM867.779 413.069H844.148V388.595H867.779V413.069ZM867.779 386.6H844.148V362.05H867.779V386.6ZM867.779 360.056H844.148V335.604H867.779V360.056ZM867.779 333.587H844.148V309.045H867.779V333.587ZM867.779 307.043H844.148V282.584H867.779V307.043ZM867.779 280.574H844.148V256.024H867.779V280.574ZM867.779 254.105H844.148V229.563H867.779V254.105ZM867.779 227.561H844.148V203.004H867.779V227.561ZM867.779 201.016H844.148V176.535H867.779V201.016ZM867.779 174.555H844.148V150.074H867.779V174.555ZM867.779 148.087H844.148V123.514H867.779V148.087ZM867.779 121.542H844.148V97.0532H867.779V121.542ZM867.779 95.0737H844.148V70.4936H867.779V95.0737ZM867.779 68.5293H844.148V44.025H867.779V68.5293ZM893.433 466.143H869.81V441.684H893.433V466.143ZM893.433 439.674H869.81V415.094H893.433V439.674ZM893.433 413.129H869.81V388.595H893.433V413.129ZM893.433 386.661H869.81V362.05H893.433V386.661ZM893.433 360.116H869.81V335.604H893.433V360.116ZM893.433 333.648H869.81V309.045H893.433V333.648ZM893.433 307.103H869.81V282.584H893.433V307.103ZM893.433 280.635H869.81V256.024H893.433V280.635ZM893.433 254.166H869.81V229.563H893.433V254.166ZM893.433 227.622H869.81V203.004H893.433V227.622ZM893.433 201.077H869.81V176.535H893.433V201.077ZM893.433 174.616H869.81V150.074H893.433V174.616ZM893.433 148.147H869.81V123.514H893.433V148.147ZM893.433 121.603H869.81V97.0532H893.433V121.603ZM893.433 95.1344H869.81V70.4936H893.433V95.1344ZM893.433 68.59H869.81V44.025H893.433V68.59ZM918.997 466.203H895.374V441.684H918.997V466.203ZM918.997 439.735H895.374V415.094H918.997V439.735ZM918.997 413.19H895.374V388.595H918.997V413.19ZM918.997 386.721H895.374V362.05H918.997V386.721ZM918.997 360.177H895.374V335.604H918.997V360.177ZM918.997 333.708H895.374V309.045H918.997V333.708ZM918.997 307.164H895.374V282.584H918.997V307.164ZM918.997 280.695H895.374V256.024H918.997V280.695ZM918.997 254.227H895.374V229.563H918.997V254.227ZM918.997 227.682H895.374V203.004H918.997V227.682ZM918.997 201.138H895.374V176.535H918.997V201.138ZM918.997 174.677H895.374V150.074H918.997V174.677ZM918.997 148.208H895.374V123.514H918.997V148.208ZM918.997 121.664H895.374V97.0532H918.997V121.664ZM918.997 95.1951H895.374V70.4936H918.997V95.1951ZM918.997 68.6506H895.374V44.025H918.997V68.6506ZM944.568 466.264H920.937V441.684H944.568V466.264ZM944.568 439.795H920.937V415.094H944.568V439.795ZM944.568 413.251H920.937V388.595H944.568V413.251ZM944.568 386.782H920.937V362.05H944.568V386.782ZM944.568 360.238H920.937V335.604H944.568V360.238ZM944.568 333.769H920.937V309.045H944.568V333.769ZM944.568 307.225H920.937V282.584H944.568V307.225ZM944.568 280.756H920.937V256.024H944.568V280.756ZM944.568 254.287H920.937V229.563H944.568V254.287ZM944.568 227.743H920.937V203.004H944.568V227.743ZM944.568 201.198H920.937V176.535H944.568V201.198ZM944.568 174.737H920.937V150.074H944.568V174.737ZM944.568 148.269H920.937V123.514H944.568V148.269ZM944.568 121.724H920.937V97.0532H944.568V121.724ZM944.568 95.2558H920.937V70.4936H944.568V95.2558ZM944.568 68.7113H920.937V44.025H944.568V68.7113ZM970.222 466.325H946.599V441.684H970.222V466.325ZM970.222 439.856H946.599V415.094H970.222V439.856ZM970.222 413.311H946.599V388.595H970.222V413.311ZM970.222 386.843H946.599V362.05H970.222V386.843ZM970.222 360.298H946.599V335.604H970.222V360.298ZM970.222 333.83H946.599V309.045H970.222V333.83ZM970.222 307.285H946.599V282.584H970.222V307.285ZM970.222 280.817H946.599V256.024H970.222V280.817ZM970.222 254.348H946.599V229.563H970.222V254.348ZM970.222 227.804H946.599V203.004H970.222V227.804ZM970.222 201.259H946.599V176.535H970.222V201.259ZM970.222 174.798H946.599V150.074H970.222V174.798ZM970.222 148.33H946.599V123.514H970.222V148.33ZM970.222 121.785H946.599V97.0532H970.222V121.785ZM970.222 95.3164H946.599V70.4936H970.222V95.3164ZM970.222 68.772H946.599V44.025H970.222V68.772ZM995.786 466.082H972.163V441.684H995.786V466.082ZM995.786 439.613H972.163V415.094H995.786V439.613ZM995.786 413.069H972.163V388.595H995.786V413.069ZM995.786 386.6H972.163V362.05H995.786V386.6ZM995.786 360.056H972.163V335.604H995.786V360.056ZM995.786 333.587H972.163V309.045H995.786V333.587ZM995.786 307.043H972.163V282.584H995.786V307.043ZM995.786 280.574H972.163V256.024H995.786V280.574ZM995.786 254.105H972.163V229.563H995.786V254.105ZM995.786 227.561H972.163V203.004H995.786V227.561ZM995.786 201.016H972.163V176.535H995.786V201.016ZM995.786 174.555H972.163V150.074H995.786V174.555ZM995.786 148.087H972.163V123.514H995.786V148.087ZM995.786 121.542H972.163V97.0532H995.786V121.542ZM995.786 95.0737H972.163V70.4936H995.786V95.0737ZM995.786 68.5293H972.163V44.025H995.786V68.5293ZM1021.36 466.143H997.756V441.684H1021.39L1021.36 466.143ZM1021.36 439.674H997.756V415.094H1021.39L1021.36 439.674ZM1021.36 413.129H997.756V388.595H1021.39L1021.36 413.129ZM1021.36 386.661H997.756V362.05H1021.39L1021.36 386.661ZM1021.36 360.116H997.756V335.604H1021.39L1021.36 360.116ZM1021.36 333.648H997.756V309.045H1021.39L1021.36 333.648ZM1021.36 307.103H997.756V282.584H1021.39L1021.36 307.103ZM1021.36 280.635H997.756V256.024H1021.39L1021.36 280.635ZM1021.36 254.166H997.756V229.563H1021.39L1021.36 254.166ZM1021.36 227.622H997.756V203.004H1021.39L1021.36 227.622ZM1021.36 201.077H997.756V176.535H1021.39L1021.36 201.077ZM1021.36 174.616H997.756V150.074H1021.39L1021.36 174.616ZM1021.36 148.147H997.756V123.514H1021.39L1021.36 148.147ZM1021.36 121.603H997.756V97.0532H1021.39L1021.36 121.603ZM1021.36 95.1344H997.756V70.4936H1021.39L1021.36 95.1344ZM1021.36 68.59H997.756V44.025H1021.39L1021.36 68.59ZM1047.02 466.082H1023.39V441.684H1047.02V466.082ZM1047.02 439.613H1023.39V415.094H1047.02V439.613ZM1047.02 413.069H1023.39V388.595H1047.02V413.069ZM1047.02 386.6H1023.39V362.05H1047.02V386.6ZM1047.02 360.056H1023.39V335.604H1047.02V360.056ZM1047.02 333.587H1023.39V309.045H1047.02V333.587ZM1047.02 307.043H1023.39V282.584H1047.02V307.043ZM1047.02 280.574H1023.39V256.024H1047.02V280.574ZM1047.02 254.105H1023.39V229.563H1047.02V254.105ZM1047.02 227.561H1023.39V203.004H1047.02V227.561ZM1047.02 201.016H1023.39V176.535H1047.02V201.016ZM1047.02 174.555H1023.39V150.074H1047.02V174.555ZM1047.02 148.087H1023.39V123.514H1047.02V148.087ZM1047.02 121.542H1023.39V97.0532H1047.02V121.542ZM1047.02 95.0737H1023.39V70.4936H1047.02V95.0737ZM1047.02 68.5293H1023.39V44.025H1047.02V68.5293ZM1072.58 466.143H1048.95V441.684H1072.57L1072.58 466.143ZM1072.58 439.674H1048.95V415.094H1072.57L1072.58 439.674ZM1072.58 413.129H1048.95V388.595H1072.57L1072.58 413.129ZM1072.58 386.661H1048.95V362.05H1072.57L1072.58 386.661ZM1072.58 360.116H1048.95V335.604H1072.57L1072.58 360.116ZM1072.58 333.648H1048.95V309.045H1072.57L1072.58 333.648ZM1072.58 307.103H1048.95V282.584H1072.57L1072.58 307.103ZM1072.58 280.635H1048.95V256.024H1072.57L1072.58 280.635ZM1072.58 254.166H1048.95V229.563H1072.57L1072.58 254.166ZM1072.58 227.622H1048.95V203.004H1072.57L1072.58 227.622ZM1072.58 201.077H1048.95V176.535H1072.57L1072.58 201.077ZM1072.58 174.616H1048.95V150.074H1072.57L1072.58 174.616ZM1072.58 148.147H1048.95V123.514H1072.57L1072.58 148.147ZM1072.58 121.603H1048.95V97.0532H1072.57L1072.58 121.603ZM1072.58 95.1344H1048.95V70.4936H1072.57L1072.58 95.1344ZM1072.58 68.59H1048.95V44.025H1072.57L1072.58 68.59ZM1098.15 466.203H1074.52V441.684H1098.15L1098.15 466.203ZM1098.15 439.735H1074.52V415.094H1098.15L1098.15 439.735ZM1098.15 413.19H1074.52V388.595H1098.15L1098.15 413.19ZM1098.15 386.721H1074.52V362.05H1098.15L1098.15 386.721ZM1098.15 360.177H1074.52V335.604H1098.15L1098.15 360.177ZM1098.15 333.708H1074.52V309.045H1098.15L1098.15 333.708ZM1098.15 307.164H1074.52V282.584H1098.15L1098.15 307.164ZM1098.15 280.695H1074.52V256.024H1098.15L1098.15 280.695ZM1098.15 254.227H1074.52V229.563H1098.15L1098.15 254.227ZM1098.15 227.682H1074.52V203.004H1098.15L1098.15 227.682ZM1098.15 201.138H1074.52V176.535H1098.15L1098.15 201.138ZM1098.15 174.677H1074.52V150.074H1098.15L1098.15 174.677ZM1098.15 148.208H1074.52V123.514H1098.15L1098.15 148.208ZM1098.15 121.664H1074.52V97.0532H1098.15L1098.15 121.664ZM1098.15 95.1951H1074.52V70.4936H1098.15L1098.15 95.1951ZM1098.15 68.6506H1074.52V44.025H1098.15L1098.15 68.6506ZM1123.81 466.264H1100.18V441.684H1123.8L1123.81 466.264ZM1123.81 439.795H1100.18V415.094H1123.8L1123.81 439.795ZM1123.81 413.251H1100.18V388.595H1123.8L1123.81 413.251ZM1123.81 386.782H1100.18V362.05H1123.8L1123.81 386.782ZM1123.81 360.238H1100.18V335.604H1123.8L1123.81 360.238ZM1123.81 333.769H1100.18V309.045H1123.8L1123.81 333.769ZM1123.81 307.225H1100.18V282.584H1123.8L1123.81 307.225ZM1123.81 280.756H1100.18V256.024H1123.8L1123.81 280.756ZM1123.81 254.287H1100.18V229.563H1123.8L1123.81 254.287ZM1123.81 227.743H1100.18V203.004H1123.8L1123.81 227.743ZM1123.81 201.198H1100.18V176.535H1123.8L1123.81 201.198ZM1123.81 174.737H1100.18V150.074H1123.8L1123.81 174.737ZM1123.81 148.269H1100.18V123.514H1123.8L1123.81 148.269ZM1123.81 121.724H1100.18V97.0532H1123.8L1123.81 121.724ZM1123.81 95.2558H1100.18V70.4936H1123.8L1123.81 95.2558ZM1123.81 68.7113H1100.18V44.025H1123.8L1123.81 68.7113ZM1149.33 466.082H1125.71V441.684H1149.33V466.082ZM1149.33 439.613H1125.71V415.094H1149.33V439.613ZM1149.33 413.069H1125.71V388.595H1149.33V413.069ZM1149.33 386.6H1125.71V362.05H1149.33V386.6ZM1149.33 360.056H1125.71V335.604H1149.33V360.056ZM1149.33 333.587H1125.71V309.045H1149.33V333.587ZM1149.33 307.043H1125.71V282.584H1149.33V307.043ZM1149.33 280.574H1125.71V256.024H1149.33V280.574ZM1149.33 254.105H1125.71V229.563H1149.33V254.105ZM1149.33 227.561H1125.71V203.004H1149.33V227.561ZM1149.33 201.016H1125.71V176.535H1149.33V201.016ZM1149.33 174.555H1125.71V150.074H1149.33V174.555ZM1149.33 148.087H1125.71V123.514H1149.33V148.087ZM1149.33 121.542H1125.71V97.0532H1149.33V121.542ZM1149.33 95.0737H1125.71V70.4936H1149.33V95.0737ZM1149.33 68.5293H1125.71V44.025H1149.33V68.5293ZM1174.9 466.143H1151.36V441.684H1174.9V466.143ZM1174.9 439.674H1151.36V415.094H1174.9V439.674ZM1174.9 413.129H1151.36V388.595H1174.9V413.129ZM1174.9 386.661H1151.36V362.05H1174.9V386.661ZM1174.9 360.116H1151.36V335.604H1174.9V360.116ZM1174.9 333.648H1151.36V309.045H1174.9V333.648ZM1174.9 307.103H1151.36V282.584H1174.9V307.103ZM1174.9 280.635H1151.36V256.024H1174.9V280.635ZM1174.9 254.166H1151.36V229.563H1174.9V254.166ZM1174.9 227.622H1151.36V203.004H1174.9V227.622ZM1174.9 201.077H1151.36V176.535H1174.9V201.077ZM1174.9 174.616H1151.36V150.074H1174.9V174.616ZM1174.9 148.147H1151.36V123.514H1174.9V148.147ZM1174.9 121.603H1151.36V97.0532H1174.9V121.603ZM1174.9 95.1344H1151.36V70.4936H1174.9V95.1344ZM1174.9 68.59H1151.36V44.025H1174.9V68.59ZM1200.56 466.203H1176.94V441.684H1200.56V466.203ZM1200.56 439.735H1176.94V415.094H1200.56V439.735ZM1200.56 413.19H1176.94V388.595H1200.56V413.19ZM1200.56 386.721H1176.94V362.05H1200.56V386.721ZM1200.56 360.177H1176.94V335.604H1200.56V360.177ZM1200.56 333.708H1176.94V309.045H1200.56V333.708ZM1200.56 307.164H1176.94V282.584H1200.56V307.164ZM1200.56 280.695H1176.94V256.024H1200.56V280.695ZM1200.56 254.227H1176.94V229.563H1200.56V254.227ZM1200.56 227.682H1176.94V203.004H1200.56V227.682ZM1200.56 201.138H1176.94V176.535H1200.56V201.138ZM1200.56 174.677H1176.94V150.074H1200.56V174.677ZM1200.56 148.208H1176.94V123.514H1200.56V148.208ZM1200.56 121.664H1176.94V97.0532H1200.56V121.664ZM1200.56 95.1951H1176.94V70.4936H1200.56V95.1951ZM1200.56 68.6506H1176.94V44.025H1200.56V68.6506ZM1226.21 466.264H1202.5V441.684H1226.21V466.264ZM1226.21 439.795H1202.5V415.094H1226.21V439.795ZM1226.21 413.251H1202.5V388.595H1226.21V413.251ZM1226.21 386.782H1202.5V362.05H1226.21V386.782ZM1226.21 360.238H1202.5V335.604H1226.21V360.238ZM1226.21 333.769H1202.5V309.045H1226.21V333.769ZM1226.21 307.225H1202.5V282.584H1226.21V307.225ZM1226.21 280.756H1202.5V256.024H1226.21V280.756ZM1226.21 254.287H1202.5V229.563H1226.21V254.287ZM1226.21 227.743H1202.5V203.004H1226.21V227.743ZM1226.21 201.198H1202.5V176.535H1226.21V201.198ZM1226.21 174.737H1202.5V150.074H1226.21V174.737ZM1226.21 148.269H1202.5V123.514H1226.21V148.269ZM1226.21 121.724H1202.5V97.0532H1226.21V121.724ZM1226.21 95.2558H1202.5V70.4936H1226.21V95.2558ZM1226.21 68.7113H1202.5V44.025H1226.21V68.7113ZM631.697 492.641H628.181C629.333 492.945 630.545 492.945 631.697 492.641Z" fill="#6EB9D6"/>
<path d="M-513.619 42.9632V42H356.7V42.9632H357.677V489.198C357.404 489.198 357.238 489.289 356.965 489.289C356.596 489.546 356.178 489.724 355.737 489.813V468.114H332.023V487.424C331.328 487.927 330.679 488.49 330.083 489.107V468.114H306.452V488.493L304.512 488.22V468.114H280.888V491.572C280.219 491.2 279.571 490.79 278.948 490.343V468.114H255.325V485.846C254.615 485.852 253.918 486.031 253.294 486.369V468.114H229.663V486.195C228.943 486.378 228.257 486.675 227.632 487.075V468.114H204.137V488.925C203.51 488.685 202.86 488.509 202.197 488.402V468.114H178.483V490.07C177.869 489.904 177.24 489.638 176.542 489.373V468.137H152.911V488.402C152.309 488.018 151.656 487.719 150.971 487.515V468.114H127.28V492.55C126.541 492.221 125.88 491.741 125.34 491.14V468.114H101.625V488.705C101.011 488.705 100.382 488.614 99.6851 488.614V468.137H76.0542V489.926C75.3902 490.095 74.7081 490.181 74.0231 490.184V468.114H50.5286V490.609C49.8544 490.685 49.1758 490.715 48.4975 490.7V468.114H24.8742V490.07C24.2069 489.972 23.5533 489.796 22.9264 489.547V468.114H-0.696899V488.925C-1.37732 488.965 -2.05374 489.057 -2.72049 489.198V468.114H-26.3514V489.547C-26.9653 489.373 -27.5792 489.289 -28.2006 489.107V468.114H-51.9149V489.107C-52.1801 489.107 -52.4454 489.289 -52.6728 489.289C-53.1123 489.289 -53.4307 489.198 -53.8172 489.198V468.114H-77.4557V490.222C-78.1605 490.313 -78.8653 490.488 -79.4792 490.579V468.114H-103.118V488.925C-103.73 488.515 -104.38 488.162 -105.058 487.871V468.152H-128.681V488.531C-129.32 488.39 -129.969 488.298 -130.621 488.258V468.114H-154.275V489.638C-154.955 489.622 -155.633 489.564 -156.306 489.464V468.114H-179.929V488.493C-180.579 488.506 -181.228 488.564 -181.87 488.667V468.114H-205.493V492.641H-205.326C-206.846 493.12 -208.475 493.12 -209.995 492.641H-207.433V468.114H-231.064V489.813C-231.595 489.638 -232.034 489.464 -232.58 489.289C-232.762 489.289 -232.936 489.107 -233.118 489.107V468.114H-256.741V489.904C-257.397 489.907 -258.051 489.818 -258.681 489.638V468.114H-282.282V488.493C-282.922 488.358 -283.57 488.267 -284.222 488.22V468.114H-307.853V489.107C-308.317 489.207 -308.789 489.268 -309.263 489.289C-309.437 489.289 -309.619 489.198 -309.884 489.198V468.114H-333.515V488.925C-334.159 488.836 -334.806 488.78 -335.455 488.758V468.114H-359.079V489.35C-359.693 489.524 -360.405 489.615 -361.019 489.79V468.114H-384.65V487.697C-385.313 487.522 -385.995 487.43 -386.681 487.424V468.114H-410.304V489.107C-410.956 489.073 -411.61 489.135 -412.244 489.289V468.114H-435.83V488.22C-436.501 488.127 -437.176 488.071 -437.853 488.053V468.114H-461.401V488.592C-462.094 488.574 -462.784 488.692 -463.432 488.94V468.114H-487.055V489.35H-488.996V468.114H-512.71V489.107C-513.323 488.859 -513.981 488.741 -514.642 488.758V42.9632H-513.619ZM332.023 466.082H355.737V441.684H332.023V466.082ZM332.023 439.613H355.737V415.094H332.023V439.613ZM332.023 413.069H355.737V388.595H332.023V413.069ZM332.023 386.6H355.737V362.05H332.023V386.6ZM332.023 360.056H355.737V335.604H332.023V360.056ZM332.023 333.587H355.737V309.045H332.023V333.587ZM332.023 307.043H355.737V282.584H332.023V307.043ZM332.023 280.574H355.737V256.024H332.023V280.574ZM332.023 254.105H355.737V229.563H332.023V254.105ZM332.023 227.561H355.737V203.004H332.023V227.561ZM332.023 201.016H355.737V176.535H332.023V201.016ZM332.023 174.555H355.737V150.074H332.023V174.555ZM332.023 148.087H355.737V123.514H332.023V148.087ZM332.023 121.542H355.737V97.0532H332.023V121.542ZM332.023 95.0737H355.737V70.4936H332.023V95.0737ZM332.023 68.5293H355.737V44.025H332.023V68.5293ZM306.452 466.082H330.083V441.684H306.452V466.082ZM306.452 439.613H330.083V415.094H306.452V439.613ZM306.452 413.069H330.083V388.595H306.452V413.069ZM306.452 386.6H330.083V362.05H306.452V386.6ZM306.452 360.056H330.083V335.604H306.452V360.056ZM306.452 333.587H330.083V309.045H306.452V333.587ZM306.452 307.043H330.083V282.584H306.452V307.043ZM306.452 280.574H330.083V256.024H306.452V280.574ZM306.452 254.105H330.083V229.563H306.452V254.105ZM306.452 227.561H330.083V203.004H306.452V227.561ZM306.452 201.016H330.083V176.535H306.452V201.016ZM306.452 174.555H330.083V150.074H306.452V174.555ZM306.452 148.087H330.083V123.514H306.452V148.087ZM306.452 121.542H330.083V97.0532H306.452V121.542ZM306.452 95.0737H330.083V70.4936H306.452V95.0737ZM306.452 68.5293H330.083V44.025H306.452V68.5293ZM280.888 466.143H304.512V441.684H280.888V466.143ZM280.888 439.674H304.512V415.094H280.888V439.674ZM280.888 413.129H304.512V388.595H280.888V413.129ZM280.888 386.661H304.512V362.05H280.888V386.661ZM280.888 360.116H304.512V335.604H280.888V360.116ZM280.888 333.648H304.512V309.045H280.888V333.648ZM280.888 307.103H304.512V282.584H280.888V307.103ZM280.888 280.635H304.512V256.024H280.888V280.635ZM280.888 254.166H304.512V229.563H280.888V254.166ZM280.888 227.622H304.512V203.004H280.888V227.622ZM280.888 201.077H304.512V176.535H280.888V201.077ZM280.888 174.616H304.512V150.074H280.888V174.616ZM280.888 148.147H304.512V123.514H280.888V148.147ZM280.888 121.603H304.512V97.0532H280.888V121.603ZM280.888 95.1344H304.512V70.4936H280.888V95.1344ZM280.888 68.59H304.512V44.025H280.888V68.59ZM255.325 466.203H278.948V441.684H255.325V466.203ZM255.325 439.735H278.948V415.094H255.325V439.735ZM255.325 413.19H278.948V388.595H255.325V413.19ZM255.325 386.721H278.948V362.05H255.325V386.721ZM255.325 360.177H278.948V335.604H255.325V360.177ZM255.325 333.708H278.948V309.045H255.325V333.708ZM255.325 307.164H278.948V282.584H255.325V307.164ZM255.325 280.695H278.948V256.024H255.325V280.695ZM255.325 254.227H278.948V229.563H255.325V254.227ZM255.325 227.682H278.948V203.004H255.325V227.682ZM255.325 201.138H278.948V176.535H255.325V201.138ZM255.325 174.677H278.948V150.074H255.325V174.677ZM255.325 148.208H278.948V123.514H255.325V148.208ZM255.325 121.664H278.948V97.0532H255.325V121.664ZM255.325 95.1951H278.948V70.4936H255.325V95.1951ZM255.325 68.6506H278.948V44.025H255.325V68.6506ZM229.663 466.264H253.294V441.684H229.663V466.264ZM229.663 439.795H253.294V415.094H229.663V439.795ZM229.663 413.251H253.294V388.595H229.663V413.251ZM229.663 386.782H253.294V362.05H229.663V386.782ZM229.663 360.238H253.294V335.604H229.663V360.238ZM229.663 333.769H253.294V309.045H229.663V333.769ZM229.663 307.225H253.294V282.584H229.663V307.225ZM229.663 280.756H253.294V256.024H229.663V280.756ZM229.663 254.287H253.294V229.563H229.663V254.287ZM229.663 227.743H253.294V203.004H229.663V227.743ZM229.663 201.198H253.294V176.535H229.663V201.198ZM229.663 174.737H253.294V150.074H229.663V174.737ZM229.663 148.269H253.294V123.514H229.663V148.269ZM229.663 121.724H253.294V97.0532H229.663V121.724ZM229.663 95.2558H253.294V70.4936H229.663V95.2558ZM229.663 68.7113H253.294V44.025H229.663V68.7113ZM204.099 466.325H227.594V441.684H204.099V466.325ZM204.099 439.856H227.594V415.094H204.099V439.856ZM204.099 413.311H227.594V388.595H204.099V413.311ZM204.099 386.843H227.594V362.05H204.099V386.843ZM204.099 360.298H227.594V335.604H204.099V360.298ZM204.099 333.83H227.594V309.045H204.099V333.83ZM204.099 307.285H227.594V282.584H204.099V307.285ZM204.099 280.817H227.594V256.024H204.099V280.817ZM204.099 254.348H227.594V229.563H204.099V254.348ZM204.099 227.804H227.594V203.004H204.099V227.804ZM204.099 201.259H227.594V176.535H204.099V201.259ZM204.099 174.798H227.594V150.074H204.099V174.798ZM204.099 148.33H227.594V123.514H204.099V148.33ZM204.099 121.785H227.594V97.0532H204.099V121.785ZM204.099 95.3164H227.594V70.4936H204.099V95.3164ZM204.099 68.772H227.594V44.025H204.099V68.772ZM178.445 466.385H202.159V441.684H178.445V466.385ZM178.445 439.917H202.159V415.094H178.445V439.917ZM178.445 413.372H202.159V388.595H178.445V413.372ZM178.445 386.904H202.159V362.05H178.445V386.904ZM178.445 360.359H202.159V335.604H178.445V360.359ZM178.445 333.89H202.159V309.045H178.445V333.89ZM178.445 307.346H202.159V282.584H178.445V307.346ZM178.445 280.877H202.159V256.024H178.445V280.877ZM178.445 254.409H202.159V229.563H178.445V254.409ZM178.445 227.864H202.159V203.004H178.445V227.864ZM178.445 201.32H202.159V176.535H178.445V201.32ZM178.445 174.859H202.159V150.074H178.445V174.859ZM178.445 148.39H202.159V123.514H178.445V148.39ZM178.445 121.846H202.159V97.0532H178.445V121.846ZM178.445 95.3771H202.159V70.4936H178.445V95.3771ZM178.445 68.8327H202.159V44.025H178.445V68.8327ZM152.874 466.446H176.505V441.684H152.874V466.446ZM152.874 439.977H176.505V415.094H152.874V439.977ZM152.874 413.433H176.505V388.595H152.874V413.433ZM152.874 386.964H176.505V362.05H152.874V386.964ZM152.874 360.42H176.505V335.604H152.874V360.42ZM152.874 333.951H176.505V309.045H152.874V333.951ZM152.874 307.407H176.505V282.584H152.874V307.407ZM152.874 280.938H176.505V256.024H152.874V280.938ZM152.874 254.469H176.505V229.563H152.874V254.469ZM152.874 227.925H176.505V203.004H152.874V227.925ZM152.874 201.381H176.505V176.535H152.874V201.381ZM152.874 174.919H176.505V150.074H152.874V174.919ZM152.874 148.451H176.505V123.514H152.874V148.451ZM152.874 121.906H176.505V97.0532H152.874V121.906ZM152.874 95.4378H176.505V70.4936H152.874V95.4378ZM152.874 68.8933H176.505V44.025H152.874V68.8933ZM127.28 466.082H150.933V441.684H127.28V466.082ZM127.28 439.613H150.933V415.094H127.28V439.613ZM127.28 413.069H150.933V388.595H127.28V413.069ZM127.28 386.6H150.933V362.05H127.28V386.6ZM127.28 360.056H150.933V335.604H127.28V360.056ZM127.28 333.587H150.933V309.045H127.28V333.587ZM127.28 307.043H150.933V282.584H127.28V307.043ZM127.28 280.574H150.933V256.024H127.28V280.574ZM127.28 254.105H150.933V229.563H127.28V254.105ZM127.28 227.561H150.933V203.004H127.28V227.561ZM127.28 201.016H150.933V176.535H127.28V201.016ZM127.28 174.555H150.933V150.074H127.28V174.555ZM127.28 148.087H150.933V123.514H127.28V148.087ZM127.28 121.542H150.933V97.0532H127.28V121.542ZM127.28 95.0737H150.933V70.4936H127.28V95.0737ZM127.28 68.5293H150.933V44.025H127.28V68.5293ZM101.625 466.143H125.37V441.684H101.656L101.625 466.143ZM101.625 439.674H125.37V415.094H101.656L101.625 439.674ZM101.625 413.129H125.37V388.595H101.656L101.625 413.129ZM101.625 386.661H125.37V362.05H101.656L101.625 386.661ZM101.625 360.116H125.37V335.604H101.656L101.625 360.116ZM101.625 333.648H125.37V309.045H101.656L101.625 333.648ZM101.625 307.103H125.37V282.584H101.656L101.625 307.103ZM101.625 280.635H125.37V256.024H101.656L101.625 280.635ZM101.625 254.166H125.37V229.563H101.656L101.625 254.166ZM101.625 227.622H125.37V203.004H101.656L101.625 227.622ZM101.625 201.077H125.37V176.535H101.656L101.625 201.077ZM101.625 174.616H125.37V150.074H101.656L101.625 174.616ZM101.625 148.147H125.37V123.514H101.656L101.625 148.147ZM101.625 121.603H125.37V97.0532H101.656L101.625 121.603ZM101.625 95.1344H125.37V70.4936H101.656L101.625 95.1344ZM101.625 68.59H125.37V44.025H101.656L101.625 68.59ZM76.0542 466.203H99.7155V441.684H76.0846L76.0542 466.203ZM76.0542 439.735H99.7155V415.094H76.0846L76.0542 439.735ZM76.0542 413.19H99.7155V388.595H76.0846L76.0542 413.19ZM76.0542 386.721H99.7155V362.05H76.0846L76.0542 386.721ZM76.0542 360.177H99.7155V335.604H76.0846L76.0542 360.177ZM76.0542 333.708H99.7155V309.045H76.0846L76.0542 333.708ZM76.0542 307.164H99.7155V282.584H76.0846L76.0542 307.164ZM76.0542 280.695H99.7155V256.024H76.0846L76.0542 280.695ZM76.0542 254.227H99.7155V229.563H76.0846L76.0542 254.227ZM76.0542 227.682H99.7155V203.004H76.0846L76.0542 227.682ZM76.0542 201.138H99.7155V176.535H76.0846L76.0542 201.138ZM76.0542 174.677H99.7155V150.074H76.0846L76.0542 174.677ZM76.0542 148.208H99.7155V123.514H76.0846L76.0542 148.208ZM76.0542 121.664H99.7155V97.0532H76.0846L76.0542 121.664ZM76.0542 95.1951H99.7155V70.4936H76.0846L76.0542 95.1951ZM76.0542 68.6506H99.7155V44.025H76.0846L76.0542 68.6506ZM50.4907 466.264H73.9852V441.684H50.4907V466.264ZM50.4907 439.795H73.9852V415.094H50.4907V439.795ZM50.4907 413.251H73.9852V388.595H50.4907V413.251ZM50.4907 386.782H73.9852V362.05H50.4907V386.782ZM50.4907 360.238H73.9852V335.604H50.4907V360.238ZM50.4907 333.769H73.9852V309.045H50.4907V333.769ZM50.4907 307.225H73.9852V282.584H50.4907V307.225ZM50.4907 280.756H73.9852V256.024H50.4907V280.756ZM50.4907 254.287H73.9852V229.563H50.4907V254.287ZM50.4907 227.743H73.9852V203.004H50.4907V227.743ZM50.4907 201.198H73.9852V176.535H50.4907V201.198ZM50.4907 174.737H73.9852V150.074H50.4907V174.737ZM50.4907 148.269H73.9852V123.514H50.4907V148.269ZM50.4907 121.724H73.9852V97.0532H50.4907V121.724ZM50.4907 95.2558H73.9852V70.4936H50.4907V95.2558ZM50.4907 68.7113H73.9852V44.025H50.4907V68.7113ZM24.8363 466.325H48.4596V441.684H24.8363V466.325ZM24.8363 439.856H48.4596V415.094H24.8363V439.856ZM24.8363 413.311H48.4596V388.595H24.8363V413.311ZM24.8363 386.843H48.4596V362.05H24.8363V386.843ZM24.8363 360.298H48.4596V335.604H24.8363V360.298ZM24.8363 333.83H48.4596V309.045H24.8363V333.83ZM24.8363 307.285H48.4596V282.584H24.8363V307.285ZM24.8363 280.817H48.4596V256.024H24.8363V280.817ZM24.8363 254.348H48.4596V229.563H24.8363V254.348ZM24.8363 227.804H48.4596V203.004H24.8363V227.804ZM24.8363 201.259H48.4596V176.535H24.8363V201.259ZM24.8363 174.798H48.4596V150.074H24.8363V174.798ZM24.8363 148.33H48.4596V123.514H24.8363V148.33ZM24.8363 121.785H48.4596V97.0532H24.8363V121.785ZM24.8363 95.3164H48.4596V70.4936H24.8363V95.3164ZM24.8363 68.772H48.4596V44.025H24.8363V68.772ZM-0.734833 466.385H22.9188V441.684H-0.704498L-0.734833 466.385ZM-0.734833 439.917H22.9188V415.094H-0.704498L-0.734833 439.917ZM-0.734833 413.372H22.9188V388.595H-0.704498L-0.734833 413.372ZM-0.734833 386.904H22.9188V362.05H-0.704498L-0.734833 386.904ZM-0.734833 360.359H22.9188V335.604H-0.704498L-0.734833 360.359ZM-0.734833 333.89H22.9188V309.045H-0.704498L-0.734833 333.89ZM-0.734833 307.346H22.9188V282.584H-0.704498L-0.734833 307.346ZM-0.734833 280.877H22.9188V256.024H-0.704498L-0.734833 280.877ZM-0.734833 254.409H22.9188V229.563H-0.704498L-0.734833 254.409ZM-0.734833 227.864H22.9188V203.004H-0.704498L-0.734833 227.864ZM-0.734833 201.32H22.9188V176.535H-0.704498L-0.734833 201.32ZM-0.734833 174.859H22.9188V150.074H-0.704498L-0.734833 174.859ZM-0.734833 148.39H22.9188V123.514H-0.704498L-0.734833 148.39ZM-0.734833 121.846H22.9188V97.0532H-0.704498L-0.734833 121.846ZM-0.734833 95.3771H22.9188V70.4936H-0.704498L-0.734833 95.3771ZM-0.734833 68.8327H22.9188V44.025H-0.704498L-0.734833 68.8327ZM-26.3893 466.446H-2.72806V441.684H-26.3589L-26.3893 466.446ZM-26.3893 439.977H-2.72806V415.094H-26.3589L-26.3893 439.977ZM-26.3893 413.433H-2.72806V388.595H-26.3589L-26.3893 413.433ZM-26.3893 386.964H-2.72806V362.05H-26.3589L-26.3893 386.964ZM-26.3893 360.42H-2.72806V335.604H-26.3589L-26.3893 360.42ZM-26.3893 333.951H-2.72806V309.045H-26.3589L-26.3893 333.951ZM-26.3893 307.407H-2.72806V282.584H-26.3589L-26.3893 307.407ZM-26.3893 280.938H-2.72806V256.024H-26.3589L-26.3893 280.938ZM-26.3893 254.469H-2.72806V229.563H-26.3589L-26.3893 254.469ZM-26.3893 227.925H-2.72806V203.004H-26.3589L-26.3893 227.925ZM-26.3893 201.381H-2.72806V176.535H-26.3589L-26.3893 201.381ZM-26.3893 174.919H-2.72806V150.074H-26.3589L-26.3893 174.919ZM-26.3893 148.451H-2.72806V123.514H-26.3589L-26.3893 148.451ZM-26.3893 121.906H-2.72806V97.0532H-26.3589L-26.3893 121.906ZM-26.3893 95.4378H-2.72806V70.4936H-26.3589L-26.3893 95.4378ZM-26.3893 68.8933H-2.72806V44.025H-26.3589L-26.3893 68.8933ZM-51.9528 466.507H-28.2082V441.684H-51.9225L-51.9528 466.507ZM-51.9528 440.038H-28.2082V415.094H-51.9225L-51.9528 440.038ZM-51.9528 413.493H-28.2082V388.595H-51.9225L-51.9528 413.493ZM-51.9528 387.025H-28.2082V362.05H-51.9225L-51.9528 387.025ZM-51.9528 360.48H-28.2082V335.604H-51.9225L-51.9528 360.48ZM-51.9528 334.012H-28.2082V309.045H-51.9225L-51.9528 334.012ZM-51.9528 307.467H-28.2082V282.584H-51.9225L-51.9528 307.467ZM-51.9528 280.999H-28.2082V256.024H-51.9225L-51.9528 280.999ZM-51.9528 254.53H-28.2082V229.563H-51.9225L-51.9528 254.53ZM-51.9528 227.986H-28.2082V203.004H-51.9225L-51.9528 227.986ZM-51.9528 201.441H-28.2082V176.535H-51.9225L-51.9528 201.441ZM-51.9528 174.98H-28.2082V150.074H-51.9225L-51.9528 174.98ZM-51.9528 148.512H-28.2082V123.514H-51.9225L-51.9528 148.512ZM-51.9528 121.967H-28.2082V97.0532H-51.9225L-51.9528 121.967ZM-51.9528 95.4985H-28.2082V70.4936H-51.9225L-51.9528 95.4985ZM-51.9528 68.954H-28.2082V44.025H-51.9225L-51.9528 68.954ZM-77.5239 466.567H-53.8551V441.684H-77.4936L-77.5239 466.567ZM-77.5239 440.099H-53.8551V415.094H-77.4936L-77.5239 440.099ZM-77.5239 413.554H-53.8551V388.595H-77.4936L-77.5239 413.554ZM-77.5239 387.086H-53.8551V362.05H-77.4936L-77.5239 387.086ZM-77.5239 360.541H-53.8551V335.604H-77.4936L-77.5239 360.541ZM-77.5239 334.072H-53.8551V309.045H-77.4936L-77.5239 334.072ZM-77.5239 307.528H-53.8551V282.584H-77.4936L-77.5239 307.528ZM-77.5239 281.059H-53.8551V256.024H-77.4936L-77.5239 281.059ZM-77.5239 254.591H-53.8551V229.563H-77.4936L-77.5239 254.591ZM-77.5239 228.046H-53.8551V203.004H-77.4936L-77.5239 228.046ZM-77.5239 201.502H-53.8551V176.535H-77.4936L-77.5239 201.502ZM-77.5239 175.041H-53.8551V150.074H-77.4936L-77.5239 175.041ZM-77.5239 148.572H-53.8551V123.514H-77.4936L-77.5239 148.572ZM-77.5239 122.028H-53.8551V97.0532H-77.4936L-77.5239 122.028ZM-77.5239 95.5591H-53.8551V70.4936H-77.4936L-77.5239 95.5591ZM-77.5239 69.0147H-53.8551V44.025H-77.4936L-77.5239 69.0147ZM-103.118 466.082H-79.5171V441.684H-103.118V466.082ZM-103.118 439.613H-79.5171V415.094H-103.118V439.613ZM-103.118 413.069H-79.5171V388.595H-103.118V413.069ZM-103.118 386.6H-79.5171V362.05H-103.118V386.6ZM-103.118 360.056H-79.5171V335.604H-103.118V360.056ZM-103.118 333.587H-79.5171V309.045H-103.118V333.587ZM-103.118 307.043H-79.5171V282.584H-103.118V307.043ZM-103.118 280.574H-79.5171V256.024H-103.118V280.574ZM-103.118 254.105H-79.5171V229.563H-103.118V254.105ZM-103.118 227.561H-79.5171V203.004H-103.118V227.561ZM-103.118 201.016H-79.5171V176.535H-103.118V201.016ZM-103.118 174.555H-79.5171V150.074H-103.118V174.555ZM-103.118 148.087H-79.5171V123.514H-103.118V148.087ZM-103.118 121.542H-79.5171V97.0532H-103.118V121.542ZM-103.118 95.0737H-79.5171V70.4936H-103.118V95.0737ZM-103.118 68.5293H-79.5171V44.025H-103.118V68.5293ZM-128.681 466.143H-105.081V441.684H-128.704L-128.681 466.143ZM-128.681 439.674H-105.081V415.094H-128.704L-128.681 439.674ZM-128.681 413.129H-105.081V388.595H-128.704L-128.681 413.129ZM-128.681 386.661H-105.081V362.05H-128.704L-128.681 386.661ZM-128.681 360.116H-105.081V335.604H-128.704L-128.681 360.116ZM-128.681 333.648H-105.081V309.045H-128.704L-128.681 333.648ZM-128.681 307.103H-105.081V282.584H-128.704L-128.681 307.103ZM-128.681 280.635H-105.081V256.024H-128.704L-128.681 280.635ZM-128.681 254.166H-105.081V229.563H-128.704L-128.681 254.166ZM-128.681 227.622H-105.081V203.004H-128.704L-128.681 227.622ZM-128.681 201.077H-105.081V176.535H-128.704L-128.681 201.077ZM-128.681 174.616H-105.081V150.074H-128.704L-128.681 174.616ZM-128.681 148.147H-105.081V123.514H-128.704L-128.681 148.147ZM-128.681 121.603H-105.081V97.0532H-128.704L-128.681 121.603ZM-128.681 95.1344H-105.081V70.4936H-128.704L-128.681 95.1344ZM-128.681 68.59H-105.081V44.025H-128.704L-128.681 68.59ZM-154.275 466.082H-130.644V441.684H-154.275V466.082ZM-154.275 439.613H-130.644V415.094H-154.275V439.613ZM-154.275 413.069H-130.644V388.595H-154.275V413.069ZM-154.275 386.6H-130.644V362.05H-154.275V386.6ZM-154.275 360.056H-130.644V335.604H-154.275V360.056ZM-154.275 333.587H-130.644V309.045H-154.275V333.587ZM-154.275 307.043H-130.644V282.584H-154.275V307.043ZM-154.275 280.574H-130.644V256.024H-154.275V280.574ZM-154.275 254.105H-130.644V229.563H-154.275V254.105ZM-154.275 227.561H-130.644V203.004H-154.275V227.561ZM-154.275 201.016H-130.644V176.535H-154.275V201.016ZM-154.275 174.555H-130.644V150.074H-154.275V174.555ZM-154.275 148.087H-130.644V123.514H-154.275V148.087ZM-154.275 121.542H-130.644V97.0532H-154.275V121.542ZM-154.275 95.0737H-130.644V70.4936H-154.275V95.0737ZM-154.275 68.5293H-130.644V44.025H-154.275V68.5293ZM-179.929 466.143H-156.306V441.684H-179.929V466.143ZM-179.929 439.674H-156.306V415.094H-179.929V439.674ZM-179.929 413.129H-156.306V388.595H-179.929V413.129ZM-179.929 386.661H-156.306V362.05H-179.929V386.661ZM-179.929 360.116H-156.306V335.604H-179.929V360.116ZM-179.929 333.648H-156.306V309.045H-179.929V333.648ZM-179.929 307.103H-156.306V282.584H-179.929V307.103ZM-179.929 280.635H-156.306V256.024H-179.929V280.635ZM-179.929 254.166H-156.306V229.563H-179.929V254.166ZM-179.929 227.622H-156.306V203.004H-179.929V227.622ZM-179.929 201.077H-156.306V176.535H-179.929V201.077ZM-179.929 174.616H-156.306V150.074H-179.929V174.616ZM-179.929 148.147H-156.306V123.514H-179.929V148.147ZM-179.929 121.603H-156.306V97.0532H-179.929V121.603ZM-179.929 95.1344H-156.306V70.4936H-179.929V95.1344ZM-179.929 68.59H-156.306V44.025H-179.929V68.59ZM-205.493 466.203H-181.87V441.684H-205.493V466.203ZM-205.493 439.735H-181.87V415.094H-205.493V439.735ZM-205.493 413.19H-181.87V388.595H-205.493V413.19ZM-205.493 386.721H-181.87V362.05H-205.493V386.721ZM-205.493 360.177H-181.87V335.604H-205.493V360.177ZM-205.493 333.708H-181.87V309.045H-205.493V333.708ZM-205.493 307.164H-181.87V282.584H-205.493V307.164ZM-205.493 280.695H-181.87V256.024H-205.493V280.695ZM-205.493 254.227H-181.87V229.563H-205.493V254.227ZM-205.493 227.682H-181.87V203.004H-205.493V227.682ZM-205.493 201.138H-181.87V176.535H-205.493V201.138ZM-205.493 174.677H-181.87V150.074H-205.493V174.677ZM-205.493 148.208H-181.87V123.514H-205.493V148.208ZM-205.493 121.664H-181.87V97.0532H-205.493V121.664ZM-205.493 95.1951H-181.87V70.4936H-205.493V95.1951ZM-205.493 68.6506H-181.87V44.025H-205.493V68.6506ZM-231.064 466.264H-207.433V441.684H-231.064V466.264ZM-231.064 439.795H-207.433V415.094H-231.064V439.795ZM-231.064 413.251H-207.433V388.595H-231.064V413.251ZM-231.064 386.782H-207.433V362.05H-231.064V386.782ZM-231.064 360.238H-207.433V335.604H-231.064V360.238ZM-231.064 333.769H-207.433V309.045H-231.064V333.769ZM-231.064 307.225H-207.433V282.584H-231.064V307.225ZM-231.064 280.756H-207.433V256.024H-231.064V280.756ZM-231.064 254.287H-207.433V229.563H-231.064V254.287ZM-231.064 227.743H-207.433V203.004H-231.064V227.743ZM-231.064 201.198H-207.433V176.535H-231.064V201.198ZM-231.064 174.737H-207.433V150.074H-231.064V174.737ZM-231.064 148.269H-207.433V123.514H-231.064V148.269ZM-231.064 121.724H-207.433V97.0532H-231.064V121.724ZM-231.064 95.2558H-207.433V70.4936H-231.064V95.2558ZM-231.064 68.7113H-207.433V44.025H-231.064V68.7113ZM-256.719 466.325H-233.095V441.684H-256.719V466.325ZM-256.719 439.856H-233.095V415.094H-256.719V439.856ZM-256.719 413.311H-233.095V388.595H-256.719V413.311ZM-256.719 386.843H-233.095V362.05H-256.719V386.843ZM-256.719 360.298H-233.095V335.604H-256.719V360.298ZM-256.719 333.83H-233.095V309.045H-256.719V333.83ZM-256.719 307.285H-233.095V282.584H-256.719V307.285ZM-256.719 280.817H-233.095V256.024H-256.719V280.817ZM-256.719 254.348H-233.095V229.563H-256.719V254.348ZM-256.719 227.804H-233.095V203.004H-256.719V227.804ZM-256.719 201.259H-233.095V176.535H-256.719V201.259ZM-256.719 174.798H-233.095V150.074H-256.719V174.798ZM-256.719 148.33H-233.095V123.514H-256.719V148.33ZM-256.719 121.785H-233.095V97.0532H-256.719V121.785ZM-256.719 95.3164H-233.095V70.4936H-256.719V95.3164ZM-256.719 68.772H-233.095V44.025H-256.719V68.772ZM-282.282 466.082H-258.659V441.684H-282.282V466.082ZM-282.282 439.613H-258.659V415.094H-282.282V439.613ZM-282.282 413.069H-258.659V388.595H-282.282V413.069ZM-282.282 386.6H-258.659V362.05H-282.282V386.6ZM-282.282 360.056H-258.659V335.604H-282.282V360.056ZM-282.282 333.587H-258.659V309.045H-282.282V333.587ZM-282.282 307.043H-258.659V282.584H-282.282V307.043ZM-282.282 280.574H-258.659V256.024H-282.282V280.574ZM-282.282 254.105H-258.659V229.563H-282.282V254.105ZM-282.282 227.561H-258.659V203.004H-282.282V227.561ZM-282.282 201.016H-258.659V176.535H-282.282V201.016ZM-282.282 174.555H-258.659V150.074H-282.282V174.555ZM-282.282 148.087H-258.659V123.514H-282.282V148.087ZM-282.282 121.542H-258.659V97.0532H-282.282V121.542ZM-282.282 95.0737H-258.659V70.4936H-282.282V95.0737ZM-282.282 68.5293H-258.659V44.025H-282.282V68.5293ZM-307.853 466.143H-284.253V441.684H-307.883L-307.853 466.143ZM-307.853 439.674H-284.253V415.094H-307.883L-307.853 439.674ZM-307.853 413.129H-284.253V388.595H-307.883L-307.853 413.129ZM-307.853 386.661H-284.253V362.05H-307.883L-307.853 386.661ZM-307.853 360.116H-284.253V335.604H-307.883L-307.853 360.116ZM-307.853 333.648H-284.253V309.045H-307.883L-307.853 333.648ZM-307.853 307.103H-284.253V282.584H-307.883L-307.853 307.103ZM-307.853 280.635H-284.253V256.024H-307.883L-307.853 280.635ZM-307.853 254.166H-284.253V229.563H-307.883L-307.853 254.166ZM-307.853 227.622H-284.253V203.004H-307.883L-307.853 227.622ZM-307.853 201.077H-284.253V176.535H-307.883L-307.853 201.077ZM-307.853 174.616H-284.253V150.074H-307.883L-307.853 174.616ZM-307.853 148.147H-284.253V123.514H-307.883L-307.853 148.147ZM-307.853 121.603H-284.253V97.0532H-307.883L-307.853 121.603ZM-307.853 95.1344H-284.253V70.4936H-307.883L-307.853 95.1344ZM-307.853 68.59H-284.253V44.025H-307.883L-307.853 68.59ZM-333.515 466.082H-309.884V441.684H-333.515V466.082ZM-333.515 439.613H-309.884V415.094H-333.515V439.613ZM-333.515 413.069H-309.884V388.595H-333.515V413.069ZM-333.515 386.6H-309.884V362.05H-333.515V386.6ZM-333.515 360.056H-309.884V335.604H-333.515V360.056ZM-333.515 333.587H-309.884V309.045H-333.515V333.587ZM-333.515 307.043H-309.884V282.584H-333.515V307.043ZM-333.515 280.574H-309.884V256.024H-333.515V280.574ZM-333.515 254.105H-309.884V229.563H-333.515V254.105ZM-333.515 227.561H-309.884V203.004H-333.515V227.561ZM-333.515 201.016H-309.884V176.535H-333.515V201.016ZM-333.515 174.555H-309.884V150.074H-333.515V174.555ZM-333.515 148.087H-309.884V123.514H-333.515V148.087ZM-333.515 121.542H-309.884V97.0532H-333.515V121.542ZM-333.515 95.0737H-309.884V70.4936H-333.515V95.0737ZM-333.515 68.5293H-309.884V44.025H-333.515V68.5293ZM-359.079 466.143H-335.448V441.684H-359.071L-359.079 466.143ZM-359.079 439.674H-335.448V415.094H-359.071L-359.079 439.674ZM-359.079 413.129H-335.448V388.595H-359.071L-359.079 413.129ZM-359.079 386.661H-335.448V362.05H-359.071L-359.079 386.661ZM-359.079 360.116H-335.448V335.604H-359.071L-359.079 360.116ZM-359.079 333.648H-335.448V309.045H-359.071L-359.079 333.648ZM-359.079 307.103H-335.448V282.584H-359.071L-359.079 307.103ZM-359.079 280.635H-335.448V256.024H-359.071L-359.079 280.635ZM-359.079 254.166H-335.448V229.563H-359.071L-359.079 254.166ZM-359.079 227.622H-335.448V203.004H-359.071L-359.079 227.622ZM-359.079 201.077H-335.448V176.535H-359.071L-359.079 201.077ZM-359.079 174.616H-335.448V150.074H-359.071L-359.079 174.616ZM-359.079 148.147H-335.448V123.514H-359.071L-359.079 148.147ZM-359.079 121.603H-335.448V97.0532H-359.071L-359.079 121.603ZM-359.079 95.1344H-335.448V70.4936H-359.071L-359.079 95.1344ZM-359.079 68.59H-335.448V44.025H-359.071L-359.079 68.59ZM-384.65 466.203H-361.011V441.684H-384.642L-384.65 466.203ZM-384.65 439.735H-361.011V415.094H-384.642L-384.65 439.735ZM-384.65 413.19H-361.011V388.595H-384.642L-384.65 413.19ZM-384.65 386.721H-361.011V362.05H-384.642L-384.65 386.721ZM-384.65 360.177H-361.011V335.604H-384.642L-384.65 360.177ZM-384.65 333.708H-361.011V309.045H-384.642L-384.65 333.708ZM-384.65 307.164H-361.011V282.584H-384.642L-384.65 307.164ZM-384.65 280.695H-361.011V256.024H-384.642L-384.65 280.695ZM-384.65 254.227H-361.011V229.563H-384.642L-384.65 254.227ZM-384.65 227.682H-361.011V203.004H-384.642L-384.65 227.682ZM-384.65 201.138H-361.011V176.535H-384.642L-384.65 201.138ZM-384.65 174.677H-361.011V150.074H-384.642L-384.65 174.677ZM-384.65 148.208H-361.011V123.514H-384.642L-384.65 148.208ZM-384.65 121.664H-361.011V97.0532H-384.642L-384.65 121.664ZM-384.65 95.1951H-361.011V70.4936H-384.642L-384.65 95.1951ZM-384.65 68.6506H-361.011V44.025H-384.642L-384.65 68.6506ZM-410.304 466.264H-386.673V441.684H-410.297L-410.304 466.264ZM-410.304 439.795H-386.673V415.094H-410.297L-410.304 439.795ZM-410.304 413.251H-386.673V388.595H-410.297L-410.304 413.251ZM-410.304 386.782H-386.673V362.05H-410.297L-410.304 386.782ZM-410.304 360.238H-386.673V335.604H-410.297L-410.304 360.238ZM-410.304 333.769H-386.673V309.045H-410.297L-410.304 333.769ZM-410.304 307.225H-386.673V282.584H-410.297L-410.304 307.225ZM-410.304 280.756H-386.673V256.024H-410.297L-410.304 280.756ZM-410.304 254.287H-386.673V229.563H-410.297L-410.304 254.287ZM-410.304 227.743H-386.673V203.004H-410.297L-410.304 227.743ZM-410.304 201.198H-386.673V176.535H-410.297L-410.304 201.198ZM-410.304 174.737H-386.673V150.074H-410.297L-410.304 174.737ZM-410.304 148.269H-386.673V123.514H-410.297L-410.304 148.269ZM-410.304 121.724H-386.673V97.0532H-410.297L-410.304 121.724ZM-410.304 95.2558H-386.673V70.4936H-410.297L-410.304 95.2558ZM-410.304 68.7113H-386.673V44.025H-410.297L-410.304 68.7113ZM-435.83 466.082H-412.207V441.684H-435.83V466.082ZM-435.83 439.613H-412.207V415.094H-435.83V439.613ZM-435.83 413.069H-412.207V388.595H-435.83V413.069ZM-435.83 386.6H-412.207V362.05H-435.83V386.6ZM-435.83 360.056H-412.207V335.604H-435.83V360.056ZM-435.83 333.587H-412.207V309.045H-435.83V333.587ZM-435.83 307.043H-412.207V282.584H-435.83V307.043ZM-435.83 280.574H-412.207V256.024H-435.83V280.574ZM-435.83 254.105H-412.207V229.563H-435.83V254.105ZM-435.83 227.561H-412.207V203.004H-435.83V227.561ZM-435.83 201.016H-412.207V176.535H-435.83V201.016ZM-435.83 174.555H-412.207V150.074H-435.83V174.555ZM-435.83 148.087H-412.207V123.514H-435.83V148.087ZM-435.83 121.542H-412.207V97.0532H-435.83V121.542ZM-435.83 95.0737H-412.207V70.4936H-435.83V95.0737ZM-435.83 68.5293H-412.207V44.025H-435.83V68.5293ZM-461.401 466.143H-437.853V441.684H-461.401V466.143ZM-461.401 439.674H-437.853V415.094H-461.401V439.674ZM-461.401 413.129H-437.853V388.595H-461.401V413.129ZM-461.401 386.661H-437.853V362.05H-461.401V386.661ZM-461.401 360.116H-437.853V335.604H-461.401V360.116ZM-461.401 333.648H-437.853V309.045H-461.401V333.648ZM-461.401 307.103H-437.853V282.584H-461.401V307.103ZM-461.401 280.635H-437.853V256.024H-461.401V280.635ZM-461.401 254.166H-437.853V229.563H-461.401V254.166ZM-461.401 227.622H-437.853V203.004H-461.401V227.622ZM-461.401 201.077H-437.853V176.535H-461.401V201.077ZM-461.401 174.616H-437.853V150.074H-461.401V174.616ZM-461.401 148.147H-437.853V123.514H-461.401V148.147ZM-461.401 121.603H-437.853V97.0532H-461.401V121.603ZM-461.401 95.1344H-437.853V70.4936H-461.401V95.1344ZM-461.401 68.59H-437.853V44.025H-461.401V68.59ZM-487.055 466.203H-463.432V441.684H-487.055V466.203ZM-487.055 439.735H-463.432V415.094H-487.055V439.735ZM-487.055 413.19H-463.432V388.595H-487.055V413.19ZM-487.055 386.721H-463.432V362.05H-487.055V386.721ZM-487.055 360.177H-463.432V335.604H-487.055V360.177ZM-487.055 333.708H-463.432V309.045H-487.055V333.708ZM-487.055 307.164H-463.432V282.584H-487.055V307.164ZM-487.055 280.695H-463.432V256.024H-487.055V280.695ZM-487.055 254.227H-463.432V229.563H-487.055V254.227ZM-487.055 227.682H-463.432V203.004H-487.055V227.682ZM-487.055 201.138H-463.432V176.535H-487.055V201.138ZM-487.055 174.677H-463.432V150.074H-487.055V174.677ZM-487.055 148.208H-463.432V123.514H-487.055V148.208ZM-487.055 121.664H-463.432V97.0532H-487.055V121.664ZM-487.055 95.1951H-463.432V70.4936H-487.055V95.1951ZM-487.055 68.6506H-463.432V44.025H-487.055V68.6506ZM-512.71 466.264H-488.996V441.684H-512.71V466.264ZM-512.71 439.795H-488.996V415.094H-512.71V439.795ZM-512.71 413.251H-488.996V388.595H-512.71V413.251ZM-512.71 386.782H-488.996V362.05H-512.71V386.782ZM-512.71 360.238H-488.996V335.604H-512.71V360.238ZM-512.71 333.769H-488.996V309.045H-512.71V333.769ZM-512.71 307.225H-488.996V282.584H-512.71V307.225ZM-512.71 280.756H-488.996V256.024H-512.71V280.756ZM-512.71 254.287H-488.996V229.563H-512.71V254.287ZM-512.71 227.743H-488.996V203.004H-512.71V227.743ZM-512.71 201.198H-488.996V176.535H-512.71V201.198ZM-512.71 174.737H-488.996V150.074H-512.71V174.737ZM-512.71 148.269H-488.996V123.514H-512.71V148.269ZM-512.71 121.724H-488.996V97.0532H-512.71V121.724ZM-512.71 95.2558H-488.996V70.4936H-512.71V95.2558ZM-512.71 68.7113H-488.996V44.025H-512.71V68.7113ZM81.8066 492.641H85.3232C84.1706 492.945 82.9592 492.945 81.8066 492.641Z" fill="#6EB9D6"/>
</g>
<defs>
<clipPath id="clip0_226_20">
<rect width="1422" height="536" fill="white" transform="translate(-152)"/>
</clipPath>
</defs>
</svg>
